<svg version="1.1" xmlns="http://www.w3.org/2000/svg" xmlns:xlink="http://www.w3.org/1999/xlink" width="386.433px" height="386.433px" viewBox="0,0,256,256"><g fill="#fdfdfd" fill-rule="nonzero" stroke="none" stroke-width="1" stroke-linecap="butt" stroke-linejoin="miter" stroke-miterlimit="10" stroke-dasharray="" stroke-dashoffset="0" font-family="none" font-weight="none" font-size="none" text-anchor="none" style="mix-blend-mode: normal"><g transform="scale(0.66247,0.66247)"><g><g id="Dibujo_42_"><g><path d="M27.603,251.182c6.095,0 11.041,-4.946 11.041,-11.041c0,-21.304 17.34,-38.644 38.644,-38.644c1.529,0 3.991,0.375 6.586,0.894v10.147c0,6.095 4.941,11.041 11.041,11.041c6.1,0 11.041,-4.946 11.041,-11.041v-17.771c5.924,-34.52 35.53,-59.517 70.702,-59.517c35.166,0 64.773,24.997 70.702,59.523v17.765c0,6.095 4.946,11.041 11.041,11.041c6.095,0 11.041,-4.946 11.041,-11.041v-10.147c2.595,-0.519 5.057,-0.894 6.586,-0.894c21.304,0 38.644,17.34 38.644,38.644c0,6.095 4.941,11.041 11.041,11.041c6.095,0 11.041,-4.946 11.041,-11.041c0,-19.913 -9.683,-37.573 -24.539,-48.653c5.217,-10.572 7.972,-22.193 7.972,-34.156c0,-42.619 -34.669,-77.288 -77.288,-77.288c-25.4,0 -49.105,12.592 -63.464,33.239c-0.927,-0.028 -1.844,-0.116 -2.777,-0.116c-42.309,0 -78.497,27.669 -90.051,67.262c-3.18,-0.58 -6.52,-1.016 -9.319,-1.016c-33.482,0 -60.726,27.244 -60.726,60.726c0,6.097 4.941,11.043 11.041,11.043zM242.899,102.127c30.44,0 55.205,24.765 55.205,55.205c0,8.551 -1.987,16.843 -5.714,24.384c-5.217,-1.463 -10.688,-2.302 -16.363,-2.302c-2.804,0 -6.139,0.436 -9.324,1.016c-8.877,-30.424 -32.323,-53.743 -61.891,-62.94c10.147,-9.676 23.717,-15.363 38.087,-15.363z"></path><path d="M242.899,57.963c6.095,0 11.041,-4.946 11.041,-11.041v-22.082c0,-6.095 -4.946,-11.041 -11.041,-11.041c-6.1,0 -11.041,4.946 -11.041,11.041v22.082c-0.001,6.095 4.94,11.041 11.041,11.041z"></path><path d="M375.392,146.292h-22.082c-6.1,0 -11.041,4.946 -11.041,11.041c0,6.095 4.941,11.041 11.041,11.041h22.082c6.095,0 11.041,-4.946 11.041,-11.041c0,-6.095 -4.947,-11.041 -11.041,-11.041z"></path><path d="M320.976,90.297c2.827,0 5.648,-1.076 7.806,-3.235l15.612,-15.612c4.312,-4.312 4.312,-11.301 0,-15.612c-4.312,-4.312 -11.301,-4.312 -15.612,0l-15.612,15.612c-4.312,4.312 -4.312,11.301 0,15.612c2.153,2.158 4.979,3.235 7.806,3.235z"></path><path d="M157.021,87.062c2.159,2.159 4.98,3.235 7.806,3.235c2.826,0 5.648,-1.076 7.806,-3.235c4.312,-4.312 4.312,-11.301 0,-15.612l-15.612,-15.612c-4.312,-4.312 -11.301,-4.312 -15.612,0c-4.311,4.312 -4.312,11.301 0,15.612z"></path><path d="M342.274,273.264h-198.74c-6.1,0 -11.041,4.946 -11.041,11.041c0,6.095 4.941,11.041 11.041,11.041h198.74c6.095,0 11.041,-4.946 11.041,-11.041c0,-6.094 -4.946,-11.041 -11.041,-11.041z"></path><path d="M325.712,333.99c6.095,0 11.041,-4.946 11.041,-11.041c0,-6.095 -4.946,-11.041 -11.041,-11.041h-149.054c-6.1,0 -11.041,4.946 -11.041,11.041c0,6.095 4.941,11.041 11.041,11.041z"></path><path d="M342.274,350.552h-132.493c-6.1,0 -11.041,4.946 -11.041,11.041c0,6.095 4.941,11.041 11.041,11.041h132.493c6.095,0 11.041,-4.946 11.041,-11.041c0,-6.095 -4.946,-11.041 -11.041,-11.041z"></path><path d="M11.041,295.347h99.37c6.095,0 11.041,-4.946 11.041,-11.041c0,-6.095 -4.946,-11.041 -11.041,-11.041h-99.37c-6.1,0 -11.041,4.946 -11.041,11.041c0,6.094 4.941,11.041 11.041,11.041z"></path><path d="M16.562,322.949c0,6.095 4.941,11.041 11.041,11.041h115.932c6.095,0 11.041,-4.946 11.041,-11.041c0,-6.095 -4.946,-11.041 -11.041,-11.041h-115.932c-6.1,0 -11.041,4.947 -11.041,11.041z"></path><path d="M176.658,350.552h-165.617c-6.1,0 -11.041,4.946 -11.041,11.041c0,6.095 4.941,11.041 11.041,11.041h165.616c6.095,0 11.041,-4.946 11.041,-11.041c0,-6.095 -4.946,-11.041 -11.04,-11.041z"></path></g></g></g><g font-family="Inter, apple-system, BlinkMacSystemFont, &quot;Helvetica Neue&quot;, &quot;Segoe UI&quot;, &quot;Fira Sans&quot;, Roboto, Oxygen, Ubuntu, &quot;Droid Sans&quot;, Arial, sans-serif" font-weight="400" font-size="16" text-anchor="start"></g><g font-family="Inter, apple-system, BlinkMacSystemFont, &quot;Helvetica Neue&quot;, &quot;Segoe UI&quot;, &quot;Fira Sans&quot;, Roboto, Oxygen, Ubuntu, &quot;Droid Sans&quot;, Arial, sans-serif" font-weight="400" font-size="16" text-anchor="start"></g><g font-family="Inter, apple-system, BlinkMacSystemFont, &quot;Helvetica Neue&quot;, &quot;Segoe UI&quot;, &quot;Fira Sans&quot;, Roboto, Oxygen, Ubuntu, &quot;Droid Sans&quot;, Arial, sans-serif" font-weight="400" font-size="16" text-anchor="start"></g><g font-family="Inter, apple-system, BlinkMacSystemFont, &quot;Helvetica Neue&quot;, &quot;Segoe UI&quot;, &quot;Fira Sans&quot;, Roboto, Oxygen, Ubuntu, &quot;Droid Sans&quot;, Arial, sans-serif" font-weight="400" font-size="16" text-anchor="start"></g><g font-family="Inter, apple-system, BlinkMacSystemFont, &quot;Helvetica Neue&quot;, &quot;Segoe UI&quot;, &quot;Fira Sans&quot;, Roboto, Oxygen, Ubuntu, &quot;Droid Sans&quot;, Arial, sans-serif" font-weight="400" font-size="16" text-anchor="start"></g><g font-family="Inter, apple-system, BlinkMacSystemFont, &quot;Helvetica Neue&quot;, &quot;Segoe UI&quot;, &quot;Fira Sans&quot;, Roboto, Oxygen, Ubuntu, &quot;Droid Sans&quot;, Arial, sans-serif" font-weight="400" font-size="16" text-anchor="start"></g><g font-family="Inter, apple-system, BlinkMacSystemFont, &quot;Helvetica Neue&quot;, &quot;Segoe UI&quot;, &quot;Fira Sans&quot;, Roboto, Oxygen, Ubuntu, &quot;Droid Sans&quot;, Arial, sans-serif" font-weight="400" font-size="16" text-anchor="start"></g><g font-family="Inter, apple-system, BlinkMacSystemFont, &quot;Helvetica Neue&quot;, &quot;Segoe UI&quot;, &quot;Fira Sans&quot;, Roboto, Oxygen, Ubuntu, &quot;Droid Sans&quot;, Arial, sans-serif" font-weight="400" font-size="16" text-anchor="start"></g><g font-family="Inter, apple-system, BlinkMacSystemFont, &quot;Helvetica Neue&quot;, &quot;Segoe UI&quot;, &quot;Fira Sans&quot;, Roboto, Oxygen, Ubuntu, &quot;Droid Sans&quot;, Arial, sans-serif" font-weight="400" font-size="16" text-anchor="start"></g><g font-family="Inter, apple-system, BlinkMacSystemFont, &quot;Helvetica Neue&quot;, &quot;Segoe UI&quot;, &quot;Fira Sans&quot;, Roboto, Oxygen, Ubuntu, &quot;Droid Sans&quot;, Arial, sans-serif" font-weight="400" font-size="16" text-anchor="start"></g><g font-family="Inter, apple-system, BlinkMacSystemFont, &quot;Helvetica Neue&quot;, &quot;Segoe UI&quot;, &quot;Fira Sans&quot;, Roboto, Oxygen, Ubuntu, &quot;Droid Sans&quot;, Arial, sans-serif" font-weight="400" font-size="16" text-anchor="start"></g><g font-family="Inter, apple-system, BlinkMacSystemFont, &quot;Helvetica Neue&quot;, &quot;Segoe UI&quot;, &quot;Fira Sans&quot;, Roboto, Oxygen, Ubuntu, &quot;Droid Sans&quot;, Arial, sans-serif" font-weight="400" font-size="16" text-anchor="start"></g><g font-family="Inter, apple-system, BlinkMacSystemFont, &quot;Helvetica Neue&quot;, &quot;Segoe UI&quot;, &quot;Fira Sans&quot;, Roboto, Oxygen, Ubuntu, &quot;Droid Sans&quot;, Arial, sans-serif" font-weight="400" font-size="16" text-anchor="start"></g><g font-family="Inter, apple-system, BlinkMacSystemFont, &quot;Helvetica Neue&quot;, &quot;Segoe UI&quot;, &quot;Fira Sans&quot;, Roboto, Oxygen, Ubuntu, &quot;Droid Sans&quot;, Arial, sans-serif" font-weight="400" font-size="16" text-anchor="start"></g><g font-family="Inter, apple-system, BlinkMacSystemFont, &quot;Helvetica Neue&quot;, &quot;Segoe UI&quot;, &quot;Fira Sans&quot;, Roboto, Oxygen, Ubuntu, &quot;Droid Sans&quot;, Arial, sans-serif" font-weight="400" font-size="16" text-anchor="start"></g></g></g></svg>